<?xml version="1.0" standalone="no"?>
<!DOCTYPE svg PUBLIC "-//W3C//DTD SVG 20010904//EN"
 "http://www.w3.org/TR/2001/REC-SVG-20010904/DTD/svg10.dtd">
<svg version="1.0" xmlns="http://www.w3.org/2000/svg"
 width="512.000000pt" height="512.000000pt" viewBox="0 0 512.000000 512.000000"
 preserveAspectRatio="xMidYMid meet">

<g transform="translate(0.000000,512.000000) scale(0.100000,-0.100000)"
fill="#000000" stroke="none">
<path d="M2340 5109 c-599 -51 -1150 -309 -1581 -739 -207 -207 -340 -385
-465 -624 -416 -798 -384 -1757 83 -2520 205 -333 528 -655 858 -853 416 -250
834 -366 1320 -367 275 0 477 27 724 99 578 168 1090 549 1424 1060 214 328
341 677 398 1095 17 122 17 478 0 600 -65 481 -221 868 -499 1240 -99 132
-337 376 -462 472 -524 404 -1157 592 -1800 537z m-444 -1074 c98 -17 298 -76
357 -106 40 -21 48 -47 21 -73 -20 -21 -20 -21 -111 14 -43 17 -125 43 -183
58 -91 23 -124 27 -250 27 -115 0 -156 -4 -198 -19 -36 -12 -52 -22 -48 -31
42 -109 23 -207 -55 -283 -45 -44 -95 -65 -155 -66 l-52 -1 -5 -47 c-8 -67 10
-224 38 -333 95 -366 355 -787 715 -1159 513 -529 1102 -856 1544 -856 322 0
500 182 499 510 0 133 -17 224 -74 394 -45 135 -47 151 -19 166 36 19 56 -4
94 -112 59 -167 77 -259 83 -409 9 -214 -31 -346 -138 -463 -63 -69 -124 -108
-224 -142 -74 -26 -92 -28 -230 -28 -129 0 -165 4 -255 26 -427 107 -851 368
-1269 781 -360 356 -599 699 -745 1067 -76 192 -100 308 -100 485 l-1 149 -37
34 c-81 73 -103 194 -53 292 59 117 214 166 329 105 l48 -25 57 20 c112 41
267 51 417 25z m871 -70 c84 -6 278 -50 346 -79 20 -9 37 -17 37 -19 0 -1 -10
-27 -21 -57 -33 -84 -37 -219 -10 -291 32 -85 88 -142 185 -189 164 -80 342
-72 438 18 15 14 29 24 31 21 111 -136 219 -418 246 -644 9 -78 6 -85 -46 -85
-26 0 -34 5 -37 23 -24 124 -28 137 -58 166 -65 63 -252 119 -355 106 -70 -9
-113 -39 -143 -102 -14 -28 -34 -61 -45 -73 -18 -19 -20 -20 -31 -5 -7 9 -15
40 -19 68 -18 144 -82 266 -169 324 -62 42 -113 55 -206 55 -100 -1 -183 -24
-250 -70 -109 -74 -130 -183 -77 -389 15 -56 27 -115 27 -131 0 -57 -64 -92
-268 -147 -148 -39 -214 -68 -274 -123 -138 -124 -89 -263 138 -392 69 -39 87
-45 149 -48 39 -2 109 3 156 12 133 25 157 22 283 -34 130 -58 180 -64 214
-27 28 30 42 77 42 141 0 56 31 131 62 147 34 18 64 -22 87 -114 21 -86 57
-117 135 -117 17 0 36 -4 43 -8 7 -4 22 -70 33 -147 23 -150 41 -203 85 -249
l28 -30 -29 -23 c-53 -43 -188 -130 -253 -163 -79 -39 -88 -38 -244 29 -395
169 -825 502 -1158 897 -134 158 -186 235 -193 284 -9 58 -43 110 -89 135 -31
16 -48 41 -107 156 -38 74 -85 177 -105 228 l-35 93 20 46 c25 57 112 202 120
202 4 0 17 -37 29 -82 44 -168 107 -245 216 -268 125 -26 293 34 388 140 90
100 105 231 47 403 -39 111 -35 130 21 101 19 -9 47 -27 62 -40 87 -73 242
-11 370 147 54 66 71 115 62 175 -6 43 -5 45 17 40 13 -3 60 -7 105 -11z
m-204 -28 c5 -15 6 -38 3 -51 -17 -67 -171 -209 -243 -222 -27 -5 -40 -2 -61
15 -40 32 -123 71 -154 71 -15 0 -40 -11 -55 -24 -25 -22 -28 -31 -27 -83 0
-36 11 -84 27 -128 51 -134 28 -274 -56 -338 -80 -61 -209 -103 -278 -92 -80
14 -121 70 -164 226 -14 52 -30 102 -36 112 -12 22 18 62 117 157 112 107 226
188 356 251 l67 33 79 -27 c97 -33 142 -35 167 -7 18 19 24 64 14 100 -5 18
98 39 180 37 50 -2 55 -4 64 -30z m751 -147 c119 -70 198 -131 304 -237 l103
-103 -17 -25 c-36 -55 -135 -82 -237 -66 -128 22 -247 106 -277 196 -24 74 8
275 44 275 6 0 42 -18 80 -40z m-295 -682 c51 -16 115 -80 144 -146 15 -32 33
-98 41 -147 13 -81 17 -92 50 -122 20 -18 46 -33 59 -33 44 0 90 42 125 113
30 59 38 68 73 79 46 13 135 0 224 -33 81 -30 103 -52 110 -107 16 -119 45
-152 133 -152 l55 0 -7 -87 c-4 -49 -12 -116 -17 -150 l-11 -62 -47 6 c-43 5
-50 3 -69 -22 -29 -37 -28 -58 9 -153 l30 -80 -37 -74 c-69 -138 -245 -377
-290 -395 -42 -16 -77 62 -103 230 -12 76 -28 151 -36 167 -16 31 -59 50 -116
50 -44 0 -50 8 -69 87 -26 113 -110 176 -184 140 -65 -30 -116 -126 -116 -216
0 -64 -9 -91 -30 -91 -9 0 -62 21 -116 47 -117 56 -182 64 -313 39 -134 -26
-171 -22 -260 24 -82 43 -156 106 -172 147 -13 35 -2 67 39 107 50 51 116 80
272 121 152 40 244 85 278 135 29 44 29 98 -3 225 -34 139 -38 175 -26 223 20
74 106 126 241 145 33 5 96 -2 139 -15z m-1681 -473 c-2 -2 -33 -19 -70 -39
l-68 -36 0 58 c0 58 15 181 27 217 4 15 19 -7 60 -89 30 -59 53 -109 51 -111z
m128 -195 l78 -115 6 -131 c5 -120 8 -135 37 -195 41 -84 67 -107 193 -175
124 -66 137 -76 161 -129 28 -60 24 -144 -10 -244 -16 -46 -34 -88 -39 -93
-12 -12 -38 4 -147 88 -299 230 -495 581 -539 966 l-5 47 65 41 c66 42 104 60
116 57 3 -1 41 -54 84 -117z m368 -464 c257 -281 624 -566 941 -732 l130 -68
-40 -8 c-160 -34 -417 -25 -598 21 -130 33 -311 107 -303 125 64 143 71 170
71 276 0 89 -3 111 -22 146 -31 57 -90 107 -183 154 -44 22 -98 56 -120 76
-47 43 -80 123 -80 195 l0 49 57 -67 c31 -38 97 -113 147 -167z"/>
</g>
</svg>
