<svg xmlns="http://www.w3.org/2000/svg" width="682.667" height="682.667" viewBox="0 0 512 512" preserveAspectRatio="xMidYMid meet" xmlns:v="https://vecta.io/nano"><path d="M234 1.1C174.1 6.2 119 32 75.9 75c-20.7 20.7-34 38.5-46.5 62.4-41.6 79.8-38.4 175.7 8.3 252 20.5 33.3 52.8 65.5 85.8 85.3 41.6 25 83.4 36.6 132 36.7 27.5 0 47.7-2.7 72.4-9.9 57.8-16.8 109-54.9 142.4-106 21.4-32.8 34.1-67.7 39.8-109.5 1.7-12.2 1.7-47.8 0-60-6.5-48.1-22.1-86.8-49.9-124-9.9-13.2-33.7-37.6-46.2-47.2C361.6 14.4 298.3-4.4 234 1.1zm-44.4 107.4c9.8 1.7 29.8 7.6 35.7 10.6 4 2.1 4.8 4.7 2.1 7.3-2 2.1-2 2.1-11.1-1.4-4.3-1.7-12.5-4.3-18.3-5.8-9.1-2.3-12.4-2.7-25-2.7-11.5 0-15.6.4-19.8 1.9-3.6 1.2-5.2 2.2-4.8 3.1 4.2 10.9 2.3 20.7-5.5 28.3-4.5 4.4-9.5 6.5-15.5 6.6l-5.2.1-.5 4.7c-.8 6.7 1 22.4 3.8 33.3 9.5 36.6 35.5 78.7 71.5 115.9 51.3 52.9 110.2 85.6 154.4 85.6 32.2 0 50-18.2 49.9-51 0-13.3-1.7-22.4-7.4-39.4-4.5-13.5-4.7-15.1-1.9-16.6 3.6-1.9 5.6.4 9.4 11.2 5.9 16.7 7.7 25.9 8.3 40.9.9 21.4-3.1 34.6-13.8 46.3-6.3 6.9-12.4 10.8-22.4 14.2-7.4 2.6-9.2 2.8-23 2.8-12.9 0-16.5-.4-25.5-2.6-42.7-10.7-85.1-36.8-126.9-78.1-36-35.6-59.9-69.9-74.5-106.7-7.6-19.2-10-30.8-10-48.5l-.1-14.9-3.7-3.4c-8.1-7.3-10.3-19.4-5.3-29.2 5.9-11.7 21.4-16.6 32.9-10.5l4.8 2.5 5.7-2c11.2-4.1 26.7-5.1 41.7-2.5zm87.1 7c8.4.6 27.8 5 34.6 7.9 2 .9 3.7 1.7 3.7 1.9 0 .1-1 2.7-2.1 5.7-3.3 8.4-3.7 21.9-1 29.1 3.2 8.5 8.8 14.2 18.5 18.9 16.4 8 34.2 7.2 43.8-1.8 1.5-1.4 2.9-2.4 3.1-2.1 11.1 13.6 21.9 41.8 24.6 64.4.9 7.8.6 8.5-4.6 8.5-2.6 0-3.4-.5-3.7-2.3-2.4-12.4-2.8-13.7-5.8-16.6-6.5-6.3-25.2-11.9-35.5-10.6-7 .9-11.3 3.9-14.3 10.2-1.4 2.8-3.4 6.1-4.5 7.3-1.8 1.9-2 2-3.1.5-.7-.9-1.5-4-1.9-6.8-1.8-14.4-8.2-26.6-16.9-32.4-6.2-4.2-11.3-5.5-20.6-5.5-10 .1-18.3 2.4-25 7-10.9 7.4-13 18.3-7.7 38.9 1.5 5.6 2.7 11.5 2.7 13.1 0 5.7-6.4 9.2-26.8 14.7-14.8 3.9-21.4 6.8-27.4 12.3-13.8 12.4-8.9 26.3 13.8 39.2 6.9 3.9 8.7 4.5 14.9 4.8 3.9.2 10.9-.3 15.6-1.2 13.3-2.5 15.7-2.2 28.3 3.4 13 5.8 18 6.4 21.4 2.7 2.8-3 4.2-7.7 4.2-14.1 0-5.6 3.1-13.1 6.2-14.7 3.4-1.8 6.4 2.2 8.7 11.4 2.1 8.6 5.7 11.7 13.5 11.7 1.7 0 3.6.4 4.3.8s2.2 7 3.3 14.7c2.3 15 4.1 20.3 8.5 24.9l2.8 3-2.9 2.3c-5.3 4.3-18.8 13-25.3 16.3-7.9 3.9-8.8 3.8-24.4-2.9-39.5-16.9-82.5-50.2-115.8-89.7-13.4-15.8-18.6-23.5-19.3-28.4-.9-5.8-4.3-11-8.9-13.5-3.1-1.6-4.8-4.1-10.7-15.6-3.8-7.4-8.5-17.7-10.5-22.8l-3.5-9.3 2-4.6c2.5-5.7 11.2-20.2 12-20.2.4 0 1.7 3.7 2.9 8.2 4.4 16.8 10.7 24.5 21.6 26.8 12.5 2.6 29.3-3.4 38.8-14 9-10 10.5-23.1 4.7-40.3-3.9-11.1-3.5-13 2.1-10.1 1.9.9 4.7 2.7 6.2 4 8.7 7.3 24.2 1.1 37-14.7 5.4-6.6 7.1-11.5 6.2-17.5-.6-4.3-.5-4.5 1.7-4 1.3.3 6 .7 10.5 1.1zm-20.4 2.8c.5 1.5.6 3.8.3 5.1-1.7 6.7-17.1 20.9-24.3 22.2-2.7.5-4 .2-6.1-1.5-4-3.2-12.3-7.1-15.4-7.1-1.5 0-4 1.1-5.5 2.4-2.5 2.2-2.8 3.1-2.7 8.3 0 3.6 1.1 8.4 2.7 12.8 5.1 13.4 2.8 27.4-5.6 33.8-8 6.1-20.9 10.3-27.8 9.2-8-1.4-12.1-7-16.4-22.6-1.4-5.2-3-10.2-3.6-11.2-1.2-2.2 1.8-6.2 11.7-15.7 11.2-10.7 22.6-18.8 35.6-25.1l6.7-3.3 7.9 2.7c9.7 3.3 14.2 3.5 16.7.7 1.8-1.9 2.4-6.4 1.4-10-.5-1.8 9.8-3.9 18-3.7 5 .2 5.5.4 6.4 3zm75.1 14.7c11.9 7 19.8 13.1 30.4 23.7l10.3 10.3-1.7 2.5c-3.6 5.5-13.5 8.2-23.7 6.6-12.8-2.2-24.7-10.6-27.7-19.6-2.4-7.4.8-27.5 4.4-27.5.6 0 4.2 1.8 8 4zm-29.5 68.2c5.1 1.6 11.5 8 14.4 14.6 1.5 3.2 3.3 9.8 4.1 14.7 1.3 8.1 1.7 9.2 5 12.2 2 1.8 4.6 3.3 5.9 3.3 4.4 0 9-4.2 12.5-11.3 3-5.9 3.8-6.8 7.3-7.9 4.6-1.3 13.5 0 22.4 3.3 8.1 3 10.3 5.2 11 10.7 1.6 11.9 4.5 15.2 13.3 15.2h5.5l-.7 8.7a281.67 281.67 0 0 1-1.7 15l-1.1 6.2-4.7-.6c-4.3-.5-5-.3-6.9 2.2-2.9 3.7-2.8 5.8.9 15.3l3 8-3.7 7.4c-6.9 13.8-24.5 37.7-29 39.5-4.2 1.6-7.7-6.2-10.3-23-1.2-7.6-2.8-15.1-3.6-16.7-1.6-3.1-5.9-5-11.6-5-4.4 0-5-.8-6.9-8.7-2.6-11.3-11-17.6-18.4-14-6.5 3-11.6 12.6-11.6 21.6 0 6.4-.9 9.1-3 9.1-.9 0-6.2-2.1-11.6-4.7-11.7-5.6-18.2-6.4-31.3-3.9-13.4 2.6-17.1 2.2-26-2.4-8.2-4.3-15.6-10.6-17.2-14.7-1.3-3.5-.2-6.7 3.9-10.7 5-5.1 11.6-8 27.2-12.1 15.2-4 24.4-8.5 27.8-13.5 2.9-4.4 2.9-9.8-.3-22.5-3.4-13.9-3.8-17.5-2.6-22.3 2-7.4 10.6-12.6 24.1-14.5 3.3-.5 9.6.2 13.9 1.5zm-168.1 47.3c-.2.2-3.3 1.9-7 3.9L120 256v-5.8c0-5.8 1.5-18.1 2.7-21.7.4-1.5 1.9.7 6 8.9 3 5.9 5.3 10.9 5.1 11.1zm12.8 19.5l7.8 11.5.6 13.1c.5 12 .8 13.5 3.7 19.5 4.1 8.4 6.7 10.7 19.3 17.5 12.4 6.6 13.7 7.6 16.1 12.9 2.8 6 2.4 14.4-1 24.4-1.6 4.6-3.4 8.8-3.9 9.3-1.2 1.2-3.8-.4-14.7-8.8-29.9-23-49.5-58.1-53.9-96.6l-.5-4.7 6.5-4.1c6.6-4.2 10.4-6 11.6-5.7.3.1 4.1 5.4 8.4 11.7zm36.8 46.4c25.7 28.1 62.4 56.6 94.1 73.2l13 6.8-4 .8c-16 3.4-41.7 2.5-59.8-2.1-13-3.3-31.1-10.7-30.3-12.5 6.4-14.3 7.1-17 7.1-27.6 0-8.9-.3-11.1-2.2-14.6-3.1-5.7-9-10.7-18.3-15.4-4.4-2.2-9.8-5.6-12-7.6-4.7-4.3-8-12.3-8-19.5V291l5.7 6.7c3.1 3.8 9.7 11.3 14.7 16.7z"/></svg>